# xmcd
#
# Track frame offsets:
#	150
#	14670
#	25860
#	36802
#	51325
#	64925
#	78640
#	90375
#	100840
#	110557
#	125732
#	144292
#	156260
#	174775
#	192165
#	207837
#	219987
#	233025
#	246337
#	258447
#	269537
#
# Disc length: 3756 seconds
#
# Revision: 0
# Processed by: cddbd v1.5.2PL0 Copyright (c) Steve Scherf et al.
# Submitted via: EasyCDDAExtractor 16.0.6.1
#
DISCID=290eaa15
DTITLE=Δάκης - Τόσα καλοκαίρια-Δάκης
DYEAR=1900
DGENRE=Ποικίλη
TTITLE0=Δάκης - Εκείνο το πρωΐ στην Κηφισιά [1970, Μ. Πλέσσας-Δ. Ιατρόπουλος]
TTITLE1=Δάκης - Μάζευα στα χέρια μου βροχή [1970, Μ. Πλέσσας-Β. Δαλαμάγκας]
TTITLE2=Δάκης - Κορίτσι στάσου να σού πω [1970, Μ. Πλέσσας-Ά. Δασκαλόπουλος]
TTITLE3=Δάκης - Η αλήθεια [1968, Μ. Πλέσσας-Π. Πανταζής]
TTITLE4=Δάκης - Αυτό το καλοκαίρι [1970, Μ. Πλέσσας-Α. Σακελλάριος]
TTITLE5=Δάκης - Είναι πιο καλά [1973, Α. Χρυσοβέργης]
TTITLE6=Δάκης-Σακελλαρίου Λίτσα - Θεέ μου γιατί [1971, Ν. Σκέμπρης-Δ. Τσεφρώνη
TTITLE6=ς]
TTITLE7=Δάκης - Τόσα καλοκαίρια [1968, Μ. Πλέσσας-Λ. Παπαδόπουλος]
TTITLE8=Δάκης - Στην σελίδα 18 [1970, Μ. Πλέσσας-Δ. Ιατρόπουλος]
TTITLE9=Δάκης - Κλείσε τα μάτια και θυμήσου [1971, Β. Δαλαμάγκας]
TTITLE10=Δάκης - Μαργαρίτα [1971, Γ. Θεοδοσιάδης-Σ. Τσώτου]
TTITLE11=Δάκης - Κι όπου βγει [1976, Α. Χρυσοβέργης]
TTITLE12=Δάκης - Όνειρα [1976]
TTITLE13=Δάκης - Κι όλο ψάχνω να σε βρω [1976]
TTITLE14=Δάκης - Monsieur cannibal [1967]
TTITLE15=Δάκης - Mourir ou vivre [1967]
TTITLE16=Δάκης - Tu veux ou tu veux pas [1972]
TTITLE17=Δάκης - Gaston [1975]
TTITLE18=Δάκης - Taka taka [1973]
TTITLE19=Δάκης - Rain [1971]
TTITLE20=Δάκης-Playboys - Deep in the heart of Athens [1964]
EXTD=
EXTT0=
EXTT1=
EXTT2=
EXTT3=
EXTT4=
EXTT5=
EXTT6=
EXTT7=
EXTT8=
EXTT9=
EXTT10=
EXTT11=
EXTT12=
EXTT13=
EXTT14=
EXTT15=
EXTT16=
EXTT17=
EXTT18=
EXTT19=
EXTT20=
PLAYORDER=
